<?xml version="1.0" encoding="UTF-8" standalone="no"?>
<svg width="32px" height="24px" viewBox="0 0 32 24" version="1.1" xmlns="http://www.w3.org/2000/svg" xmlns:xlink="http://www.w3.org/1999/xlink" xmlns:sketch="http://www.bohemiancoding.com/sketch/ns">
    <!-- Generator: Sketch 3.4.4 (17249) - http://www.bohemiancoding.com/sketch -->
    <title>Shape</title>
    <desc>Created with Sketch.</desc>
    <defs></defs>
    <g id="Page-1" stroke="none" stroke-width="1" fill="none" fill-rule="evenodd" sketch:type="MSPage">
        <g id="2.-Icons" sketch:type="MSArtboardGroup" transform="translate(-743.000000, -110.000000)" fill="#FFFFFF">
            <g id="fi-arrow-right" sketch:type="MSLayerGroup" transform="translate(743.000000, 110.000000)">
                <path d="M16.3561026,23.3911795 L31.2968205,12.7019487 C31.5675897,12.5087179 31.7271795,12.1961026 31.728,11.8637949 L31.728,11.8613333 C31.7271795,11.5269744 31.5655385,11.2151795 31.2935385,11.0211282 L16.3528205,0.400820513 C16.0381538,0.176820513 15.6242051,0.148102564 15.2812308,0.32574359 C14.9386667,0.500512821 14.7228718,0.855794872 14.7228718,1.24307692 L14.7228718,6.24123077 L1.30379487,6.24082051 C0.733538462,6.24082051 0.272,6.70235897 0.272,7.27302564 L0.272410256,16.5206154 C0.272,17.0904615 0.733538462,17.5524103 1.30461538,17.5528205 L14.7224615,17.5528205 L14.7224615,22.5526154 C14.7224615,22.9382564 14.9398974,23.2923077 15.2828718,23.470359 C15.6262564,23.6475897 16.0410256,23.6172308 16.3561026,23.3911795 L16.3561026,23.3911795 Z" id="Shape" sketch:type="MSShapeGroup"></path>
            </g>
        </g>
    </g>
</svg>